<?xml version="1.0" encoding="UTF-8" standalone="no"?>
<svg
   xmlns:dc="http://purl.org/dc/elements/1.1/"
   xmlns:cc="http://creativecommons.org/ns#"
   xmlns:rdf="http://www.w3.org/1999/02/22-rdf-syntax-ns#"
   xmlns:svg="http://www.w3.org/2000/svg"
   xmlns="http://www.w3.org/2000/svg"
   xmlns:xlink="http://www.w3.org/1999/xlink"
   xmlns:sodipodi="http://sodipodi.sourceforge.net/DTD/sodipodi-0.dtd"
   xmlns:inkscape="http://www.inkscape.org/namespaces/inkscape"
   viewBox="1 1 375 66"
   version="1.1"
   id="svg137"
   sodipodi:docname="browsers.svg"
   width="375"
   height="66"
   inkscape:version="0.92.3 (2405546, 2018-03-11)"
   inkscape:export-filename="C:\Users\theod\Desktop\browsers.png"
   inkscape:export-xdpi="96"
   inkscape:export-ydpi="96">
  <metadata
     id="metadata141">
    <rdf:RDF>
      <cc:Work
         rdf:about="">
        <dc:format>image/svg+xml</dc:format>
        <dc:type
           rdf:resource="http://purl.org/dc/dcmitype/StillImage" />
        <dc:title />
      </cc:Work>
    </rdf:RDF>
  </metadata>
  <sodipodi:namedview
     pagecolor="#ffffff"
     bordercolor="#666666"
     borderopacity="1"
     objecttolerance="10"
     gridtolerance="10"
     guidetolerance="10"
     inkscape:pageopacity="0"
     inkscape:pageshadow="2"
     inkscape:window-width="1339"
     inkscape:window-height="683"
     id="namedview139"
     showgrid="false"
     showguides="true"
     inkscape:guide-bbox="true"
     inkscape:zoom="2"
     inkscape:cx="187.5999"
     inkscape:cy="57.032287"
     inkscape:window-x="316"
     inkscape:window-y="121"
     inkscape:window-maximized="0"
     inkscape:current-layer="svg137" />
  <defs
     id="defs3">
    <circle
       id="a"
       cy="96"
       cx="96"
       r="88" />
    <linearGradient
       inkscape:collect="always"
       xlink:href="#c"
       id="linearGradient204"
       gradientUnits="userSpaceOnUse"
       x1="29.337"
       y1="75.021004"
       x2="81.836998"
       y2="44.354" />
    <linearGradient
       inkscape:collect="always"
       xlink:href="#d"
       id="linearGradient206"
       gradientUnits="userSpaceOnUse"
       x1="110.87"
       y1="164.5"
       x2="52.537998"
       y2="130.33" />
    <linearGradient
       inkscape:collect="always"
       xlink:href="#g"
       id="linearGradient208"
       gradientUnits="userSpaceOnUse"
       x1="121.86"
       y1="49.804001"
       x2="136.55"
       y2="114.13" />
    <linearGradient
       inkscape:collect="always"
       xlink:href="#g"
       id="linearGradient210"
       gradientUnits="userSpaceOnUse"
       x1="121.86"
       y1="49.804001"
       x2="136.55"
       y2="114.13" />
    <linearGradient
       inkscape:collect="always"
       xlink:href="#c"
       id="linearGradient212"
       gradientUnits="userSpaceOnUse"
       x1="29.337"
       y1="75.021004"
       x2="81.836998"
       y2="44.354" />
    <linearGradient
       inkscape:collect="always"
       xlink:href="#d"
       id="linearGradient214"
       gradientUnits="userSpaceOnUse"
       x1="110.87"
       y1="164.5"
       x2="52.537998"
       y2="130.33" />
    <radialGradient
       gradientUnits="userSpaceOnUse"
       gradientTransform="matrix(0.762,0.034,-0.05,1.12,11560.893,10069.103)"
       r="450.875"
       fx="-14509.281"
       cy="-8329.0791"
       cx="-14480.522"
       id="radial-gradient">
      <stop
         id="stop446"
         stop-color="#ffea00"
         offset="0.045" />
      <stop
         id="stop448"
         stop-color="#ffde00"
         offset="0.12" />
      <stop
         id="stop450"
         stop-color="#ffbf00"
         offset="0.254" />
      <stop
         id="stop452"
         stop-color="#ff8e00"
         offset="0.429" />
      <stop
         id="stop454"
         stop-color="#ff272d"
         offset="0.769" />
      <stop
         id="stop456"
         stop-color="#e0255a"
         offset="0.872" />
      <stop
         id="stop458"
         stop-color="#cc2477"
         offset="0.953" />
      <stop
         id="stop460"
         stop-color="#c42482"
         offset="1" />
    </radialGradient>
    <radialGradient
       gradientUnits="userSpaceOnUse"
       gradientTransform="matrix(1.225,0,0,1.225,9921.963,9899.103)"
       r="791.229"
       cy="-7921.6079"
       cx="-7529.6689"
       id="radial-gradient-2">
      <stop
         id="stop463"
         stop-color="#00ccda"
         offset="0" />
      <stop
         id="stop465"
         stop-color="#0083ff"
         offset="0.22" />
      <stop
         id="stop467"
         stop-color="#007af9"
         offset="0.261" />
      <stop
         id="stop469"
         stop-color="#0060e8"
         offset="0.33" />
      <stop
         id="stop471"
         stop-color="#005fe7"
         offset="0.333" />
      <stop
         id="stop473"
         stop-color="#2639ad"
         offset="0.438" />
      <stop
         id="stop475"
         stop-color="#401e84"
         offset="0.522" />
      <stop
         id="stop477"
         stop-color="#4a1475"
         offset="0.566" />
    </radialGradient>
    <linearGradient
       gradientUnits="userSpaceOnUse"
       y2="104.96"
       x2="384.23099"
       y1="731.18799"
       x1="575.66901"
       id="linear-gradient">
      <stop
         id="stop480"
         stop-opacity="0.4"
         stop-color="#000f43"
         offset="0" />
      <stop
         id="stop482"
         stop-opacity="0.173"
         stop-color="#001962"
         offset="0.485" />
      <stop
         id="stop484"
         stop-opacity="0"
         stop-color="#002079"
         offset="1" />
    </linearGradient>
    <radialGradient
       gradientUnits="userSpaceOnUse"
       gradientTransform="matrix(1.219,0.123,-0.123,1.219,10296.265,9597.23)"
       r="266.88599"
       cy="-6516.5562"
       cx="-8260.9404"
       id="radial-gradient-3">
      <stop
         id="stop487"
         stop-color="#ffea00"
         offset="0.003" />
      <stop
         id="stop489"
         stop-color="#ff272d"
         offset="0.497" />
      <stop
         id="stop491"
         stop-color="#c42482"
         offset="1" />
    </radialGradient>
    <radialGradient
       gradientUnits="userSpaceOnUse"
       gradientTransform="matrix(1.219,0.123,-0.123,1.219,10296.265,9597.23)"
       r="445.67801"
       cy="-6772.4678"
       cx="-8285.0869"
       id="radial-gradient-4">
      <stop
         id="stop494"
         stop-color="#ffe900"
         offset="0.003" />
      <stop
         id="stop496"
         stop-color="#ffaf0e"
         offset="0.157" />
      <stop
         id="stop498"
         stop-color="#ff7a1b"
         offset="0.316" />
      <stop
         id="stop500"
         stop-color="#ff4e26"
         offset="0.472" />
      <stop
         id="stop502"
         stop-color="#ff2c2e"
         offset="0.621" />
      <stop
         id="stop504"
         stop-color="#ff1434"
         offset="0.762" />
      <stop
         id="stop506"
         stop-color="#ff0538"
         offset="0.892" />
      <stop
         id="stop508"
         stop-color="#ff0039"
         offset="1" />
    </radialGradient>
    <radialGradient
       gradientUnits="userSpaceOnUse"
       gradientTransform="matrix(1.219,0.123,-0.123,1.219,10296.265,9597.23)"
       r="408.95801"
       cy="-6359.332"
       cx="-8222.0508"
       id="radial-gradient-5">
      <stop
         id="stop511"
         stop-color="#ff272d"
         offset="0.003" />
      <stop
         id="stop513"
         stop-color="#c42482"
         offset="0.497" />
      <stop
         id="stop515"
         stop-color="#620700"
         offset="0.986" />
    </radialGradient>
    <radialGradient
       gradientUnits="userSpaceOnUse"
       r="782.17999"
       fy="382.2124"
       fx="778.1665"
       cy="396.04099"
       cx="750.18903"
       id="radial-gradient-6">
      <stop
         id="stop518"
         stop-color="#ffea00"
         offset="0.156" />
      <stop
         id="stop520"
         stop-color="#ffde00"
         offset="0.231" />
      <stop
         id="stop522"
         stop-color="#ffbf00"
         offset="0.365" />
      <stop
         id="stop524"
         stop-color="#ff8e00"
         offset="0.541" />
      <stop
         id="stop526"
         stop-color="#ff272d"
         offset="0.763" />
      <stop
         id="stop528"
         stop-color="#f92433"
         offset="0.796" />
      <stop
         id="stop530"
         stop-color="#e91c45"
         offset="0.841" />
      <stop
         id="stop532"
         stop-color="#cf0e62"
         offset="0.893" />
      <stop
         id="stop534"
         stop-color="#b5007f"
         offset="0.935" />
    </radialGradient>
    <radialGradient
       gradientUnits="userSpaceOnUse"
       r="923.61499"
       cy="3.289"
       cx="691.33899"
       id="radial-gradient-7">
      <stop
         id="stop537"
         stop-color="#ffea00"
         offset="0.279" />
      <stop
         id="stop539"
         stop-color="#fd0"
         offset="0.402" />
      <stop
         id="stop541"
         stop-color="#ffba00"
         offset="0.63" />
      <stop
         id="stop543"
         stop-color="#ff9100"
         offset="0.856" />
      <stop
         id="stop545"
         stop-color="#ff6711"
         offset="0.933" />
      <stop
         id="stop547"
         stop-color="#ff4a1d"
         offset="0.994" />
    </radialGradient>
    <linearGradient
       gradientUnits="userSpaceOnUse"
       gradientTransform="matrix(1.219,0.123,-0.123,1.219,10296.265,9597.23)"
       y2="-6750.2261"
       x2="-8660.2891"
       y1="-6677.7422"
       x1="-8944.6504"
       id="linear-gradient-2">
      <stop
         id="stop550"
         stop-opacity="0.5"
         stop-color="#c42482"
         offset="0" />
      <stop
         id="stop552"
         stop-opacity="0.5"
         stop-color="#ff272d"
         offset="0.474" />
      <stop
         id="stop554"
         stop-opacity="0.513"
         stop-color="#ff2c2c"
         offset="0.486" />
      <stop
         id="stop556"
         stop-opacity="0.72"
         stop-color="#ff7a1a"
         offset="0.675" />
      <stop
         id="stop558"
         stop-opacity="0.871"
         stop-color="#ffb20d"
         offset="0.829" />
      <stop
         id="stop560"
         stop-opacity="0.964"
         stop-color="#ffd605"
         offset="0.942" />
      <stop
         id="stop562"
         stop-color="#ffe302"
         offset="1" />
    </linearGradient>
    <linearGradient
       gradientUnits="userSpaceOnUse"
       gradientTransform="matrix(0.995,0.1,-0.1,0.995,-173.696,1313.941)"
       y2="-1221.859"
       x2="190.77499"
       y1="-1082.012"
       x1="245.347"
       id="linear-gradient-3">
      <stop
         id="stop565"
         stop-opacity="0.6"
         stop-color="#891551"
         offset="0" />
      <stop
         id="stop567"
         stop-opacity="0"
         stop-color="#c42482"
         offset="1" />
    </linearGradient>
    <linearGradient
       gradientUnits="userSpaceOnUse"
       gradientTransform="matrix(0.995,0.1,-0.1,0.995,305.439,-246.471)"
       y2="825.71399"
       x2="116.148"
       y1="718.82703"
       x1="22.040001"
       id="linear-gradient-4">
      <stop
         id="stop570"
         stop-opacity="0.5"
         stop-color="#891551"
         offset="0.005" />
      <stop
         id="stop572"
         stop-opacity="0.5"
         stop-color="#ff272d"
         offset="0.484" />
      <stop
         id="stop574"
         stop-opacity="0"
         stop-color="#ff272d"
         offset="1" />
    </linearGradient>
    <linearGradient
       gradientUnits="userSpaceOnUse"
       gradientTransform="matrix(0.995,0.1,-0.1,0.995,305.439,-246.471)"
       y2="829.83502"
       x2="200.17101"
       y1="904.61603"
       x1="200.104"
       id="linear-gradient-5">
      <stop
         id="stop577"
         stop-color="#c42482"
         offset="0" />
      <stop
         id="stop579"
         stop-opacity="0.81"
         stop-color="#c42482"
         offset="0.083" />
      <stop
         id="stop581"
         stop-opacity="0.565"
         stop-color="#c42482"
         offset="0.206" />
      <stop
         id="stop583"
         stop-opacity="0.362"
         stop-color="#c42482"
         offset="0.328" />
      <stop
         id="stop585"
         stop-opacity="0.204"
         stop-color="#c42482"
         offset="0.447" />
      <stop
         id="stop587"
         stop-opacity="0.091"
         stop-color="#c42482"
         offset="0.562" />
      <stop
         id="stop589"
         stop-opacity="0.023"
         stop-color="#c42482"
         offset="0.673" />
      <stop
         id="stop591"
         stop-opacity="0"
         stop-color="#c42482"
         offset="0.773" />
    </linearGradient>
    <linearGradient
       gradientUnits="userSpaceOnUse"
       y2="721.61499"
       x2="961.18701"
       y1="38.119999"
       x1="655.53101"
       id="linear-gradient-6">
      <stop
         id="stop594"
         stop-color="#fff14f"
         offset="0" />
      <stop
         id="stop596"
         stop-color="#ffee4c"
         offset="0.268" />
      <stop
         id="stop598"
         stop-color="#ffe643"
         offset="0.452" />
      <stop
         id="stop600"
         stop-color="#ffd834"
         offset="0.612" />
      <stop
         id="stop602"
         stop-color="#ffc41e"
         offset="0.757" />
      <stop
         id="stop604"
         stop-color="#ffab02"
         offset="0.892" />
      <stop
         id="stop606"
         stop-color="#ffa900"
         offset="0.902" />
      <stop
         id="stop608"
         stop-color="#ffa000"
         offset="0.949" />
      <stop
         id="stop610"
         stop-color="#ff9100"
         offset="1" />
    </linearGradient>
    <linearGradient
       gradientUnits="userSpaceOnUse"
       y2="819.96002"
       x2="571.09802"
       y1="431.20999"
       x1="715.88501"
       id="linear-gradient-7">
      <stop
         id="stop613"
         stop-color="#ff8e00"
         offset="0" />
      <stop
         id="stop615"
         stop-opacity="0.858"
         stop-color="#ff8e00"
         offset="0.04" />
      <stop
         id="stop617"
         stop-opacity="0.729"
         stop-color="#ff8e00"
         offset="0.084" />
      <stop
         id="stop619"
         stop-opacity="0.628"
         stop-color="#ff8e00"
         offset="0.13" />
      <stop
         id="stop621"
         stop-opacity="0.557"
         stop-color="#ff8e00"
         offset="0.178" />
      <stop
         id="stop623"
         stop-opacity="0.514"
         stop-color="#ff8e00"
         offset="0.227" />
      <stop
         id="stop625"
         stop-opacity="0.5"
         stop-color="#ff8e00"
         offset="0.282" />
      <stop
         id="stop627"
         stop-opacity="0.478"
         stop-color="#ff8e00"
         offset="0.389" />
      <stop
         id="stop629"
         stop-opacity="0.416"
         stop-color="#ff8e00"
         offset="0.524" />
      <stop
         id="stop631"
         stop-opacity="0.314"
         stop-color="#ff8e00"
         offset="0.676" />
      <stop
         id="stop633"
         stop-opacity="0.172"
         stop-color="#ff8e00"
         offset="0.838" />
      <stop
         id="stop635"
         stop-opacity="0"
         stop-color="#ff8e00"
         offset="1" />
    </linearGradient>
    <linearGradient
       id="linearGradient2135"
       inkscape:collect="always">
      <stop
         id="stop2131"
         offset="0"
         style="stop-color:#06c2e7;stop-opacity:1" />
      <stop
         style="stop-color:#0db8ec;stop-opacity:1"
         offset="0.25000015"
         id="stop2143" />
      <stop
         style="stop-color:#12aef1;stop-opacity:1"
         offset="0.5000003"
         id="stop2139" />
      <stop
         id="stop2141"
         offset="0.75000012"
         style="stop-color:#1f86f9;stop-opacity:1" />
      <stop
         id="stop2133"
         offset="1"
         style="stop-color:#107ddd;stop-opacity:1" />
    </linearGradient>
    <linearGradient
       id="linearGradient2127"
       inkscape:collect="always">
      <stop
         id="stop2123"
         offset="0"
         style="stop-color:#bdbdbd;stop-opacity:1" />
      <stop
         id="stop2125"
         offset="1"
         style="stop-color:#ffffff;stop-opacity:1" />
    </linearGradient>
    <linearGradient
       gradientTransform="matrix(0.35154274,0,0,0.35154274,206.79018,159.77261)"
       gradientUnits="userSpaceOnUse"
       y2="59.392235"
       x2="412.97501"
       y1="237.60777"
       x1="412.97501"
       id="linearGradient2129"
       xlink:href="#linearGradient2127"
       inkscape:collect="always" />
    <radialGradient
       gradientTransform="matrix(0.38143305,0,0,0.38143298,194.54473,155.58044)"
       gradientUnits="userSpaceOnUse"
       r="82.125351"
       fy="136.81819"
       fx="413.06128"
       cy="136.81819"
       cx="413.06128"
       id="radialGradient2137"
       xlink:href="#linearGradient2135"
       inkscape:collect="always" />
    <filter
       height="1.0446756"
       y="-0.0223378"
       width="1.0418189"
       x="-0.020909378"
       id="filter2222"
       style="color-interpolation-filters:sRGB"
       inkscape:collect="always">
      <feGaussianBlur
         id="feGaussianBlur2224"
         stdDeviation="0.95767362"
         inkscape:collect="always" />
    </filter>
    <filter
       height="1.096"
       y="-0.048"
       width="1.096"
       x="-0.048"
       id="filter2248"
       style="color-interpolation-filters:sRGB"
       inkscape:collect="always">
      <feGaussianBlur
         id="feGaussianBlur2250"
         stdDeviation="3.5643107"
         inkscape:collect="always" />
    </filter>
  </defs>
  <clipPath
     id="b">
    <use
       width="100%"
       overflow="visible"
       xlink:href="#a"
       height="100%"
       id="use5"
       style="overflow:visible"
       x="0"
       y="0" />
  </clipPath>
  <radialGradient
     id="l"
     gradientUnits="userSpaceOnUse"
     cy="55.948002"
     cx="668.17999"
     gradientTransform="translate(-576)"
     r="84.078003">
    <stop
       stop-color="#3E2723"
       stop-opacity=".2"
       offset="0"
       id="stop73" />
    <stop
       stop-color="#3E2723"
       stop-opacity="0"
       offset="1"
       id="stop75" />
  </radialGradient>
  <radialGradient
     id="p"
     gradientUnits="userSpaceOnUse"
     cy="48.52"
     cx="597.88"
     gradientTransform="translate(-576)"
     r="78.043999">
    <stop
       stop-color="#3E2723"
       stop-opacity=".2"
       offset="0"
       id="stop94" />
    <stop
       stop-color="#3E2723"
       stop-opacity="0"
       offset="1"
       id="stop96" />
  </radialGradient>
  <radialGradient
     id="q"
     gradientUnits="userSpaceOnUse"
     cy="96.138"
     cx="671.84003"
     gradientTransform="translate(-576)"
     r="87.870003">
    <stop
       stop-color="#263238"
       stop-opacity=".2"
       offset="0"
       id="stop101" />
    <stop
       stop-color="#263238"
       stop-opacity="0"
       offset="1"
       id="stop103" />
  </radialGradient>
  <radialGradient
     id="r"
     gradientUnits="userSpaceOnUse"
     cy="32.014"
     cx="34.285999"
     gradientTransform="translate(-7,-7)"
     r="176.75">
    <stop
       stop-color="#fff"
       stop-opacity=".1"
       offset="0"
       id="stop130" />
    <stop
       stop-color="#fff"
       stop-opacity="0"
       offset="1"
       id="stop132" />
  </radialGradient>
  <g
     id="g202"
     transform="matrix(0.34090909,0,0,0.34090909,80.151851,3.659091)">
    <g
       id="g17"
       clip-path="url(#b)"
       transform="translate(-7,-7)">
      <path
         id="path8"
         d="M 21.97,8 V 116 H 61.36 L 96,56 h 88 V 8 Z"
         inkscape:connector-curvature="0"
         style="fill:#db4437" />
      <linearGradient
         x1="29.337"
         x2="81.836998"
         y1="75.021004"
         gradientUnits="userSpaceOnUse"
         y2="44.354"
         id="c">
        <stop
           id="stop10"
           offset="0"
           stop-opacity=".6"
           stop-color="#A52714" />
        <stop
           id="stop12"
           offset=".66"
           stop-opacity="0"
           stop-color="#A52714" />
      </linearGradient>
      <path
         id="path15"
         d="M 21.97,8 V 116 H 61.36 L 96,56 h 88 V 8 Z"
         style="fill:url(#linearGradient204)"
         inkscape:connector-curvature="0" />
    </g>
    <path
       id="path19"
       transform="translate(-7,-7)"
       d="m 62.31,115.65 -39.83,-68.31 -0.58,1 39.54,67.8 z"
       clip-path="url(#b)"
       inkscape:connector-curvature="0"
       style="fill:#3e2723;fill-opacity:0.15" />
    <g
       id="g30"
       clip-path="url(#b)"
       transform="translate(-7,-7)">
      <path
         id="path21"
         d="m 8,184 h 83.77 l 38.88,-38.88 V 116 H 61.36 L 8,24.48 Z"
         inkscape:connector-curvature="0"
         style="fill:#0f9d58" />
      <linearGradient
         x1="110.87"
         x2="52.537998"
         y1="164.5"
         gradientUnits="userSpaceOnUse"
         y2="130.33"
         id="d">
        <stop
           id="stop23"
           offset="0"
           stop-opacity=".4"
           stop-color="#055524" />
        <stop
           id="stop25"
           offset=".33"
           stop-opacity="0"
           stop-color="#055524" />
      </linearGradient>
      <path
         id="path28"
         d="m 8,184 h 83.77 l 38.88,-38.88 V 116 H 61.36 L 8,24.48 Z"
         style="fill:url(#linearGradient206)"
         inkscape:connector-curvature="0" />
    </g>
    <path
       id="path32"
       transform="translate(-7,-7)"
       d="M 129.84,117.33 129.01,116.85 90.62,184 h 1.15 l 38.1,-66.64 z"
       clip-path="url(#b)"
       inkscape:connector-curvature="0"
       style="fill:#263238;fill-opacity:0.15" />
    <g
       id="g51"
       clip-path="url(#b)"
       transform="translate(-7,-7)">
      <defs
         id="defs35">
        <path
           d="m 8,184 h 83.77 l 38.88,-38.88 V 116 H 61.36 L 8,24.48 Z"
           id="e"
           inkscape:connector-curvature="0" />
      </defs>
      <clipPath
         id="f">
        <use
           id="use37"
           height="100%"
           xlink:href="#e"
           overflow="visible"
           width="100%"
           style="overflow:visible"
           x="0"
           y="0" />
      </clipPath>
      <g
         id="g49"
         clip-path="url(#f)">
        <path
           id="path40"
           d="m 96,56 34.65,60 -38.88,68 H 184 V 56 Z"
           inkscape:connector-curvature="0"
           style="fill:#ffcd40" />
        <linearGradient
           x1="121.86"
           x2="136.55"
           y1="49.804001"
           gradientUnits="userSpaceOnUse"
           y2="114.13"
           id="g">
          <stop
             id="stop42"
             offset="0"
             stop-opacity=".3"
             stop-color="#EA6100" />
          <stop
             id="stop44"
             offset=".66"
             stop-opacity="0"
             stop-color="#EA6100" />
        </linearGradient>
        <path
           id="path47"
           d="m 96,56 34.65,60 -38.88,68 H 184 V 56 Z"
           style="fill:url(#linearGradient208)"
           inkscape:connector-curvature="0" />
      </g>
    </g>
    <g
       id="g57"
       clip-path="url(#b)"
       transform="translate(-7,-7)">
      <path
         id="path53"
         d="m 96,56 34.65,60 -38.88,68 H 184 V 56 Z"
         inkscape:connector-curvature="0"
         style="fill:#ffcd40" />
      <path
         id="path55"
         d="m 96,56 34.65,60 -38.88,68 H 184 V 56 Z"
         style="fill:url(#linearGradient210)"
         inkscape:connector-curvature="0" />
    </g>
    <g
       id="g71"
       clip-path="url(#b)"
       transform="translate(-7,-7)">
      <defs
         id="defs60">
        <path
           d="m 96,56 34.65,60 -38.88,68 H 184 V 56 Z"
           id="i"
           inkscape:connector-curvature="0" />
      </defs>
      <clipPath
         id="j">
        <use
           id="use62"
           height="100%"
           xlink:href="#i"
           overflow="visible"
           width="100%"
           style="overflow:visible"
           x="0"
           y="0" />
      </clipPath>
      <g
         id="g69"
         clip-path="url(#j)">
        <path
           id="path65"
           d="M 21.97,8 V 116 H 61.36 L 96,56 h 88 V 8 Z"
           inkscape:connector-curvature="0"
           style="fill:#db4437" />
        <path
           id="path67"
           d="M 21.97,8 V 116 H 61.36 L 96,56 h 88 V 8 Z"
           style="fill:url(#linearGradient212)"
           inkscape:connector-curvature="0" />
      </g>
    </g>
    <path
       id="path78"
       transform="translate(-7,-7)"
       d="M 96,56 V 76.95 L 174.4,56 Z"
       clip-path="url(#b)"
       style="fill:url(#l)"
       inkscape:connector-curvature="0" />
    <g
       id="g92"
       clip-path="url(#b)"
       transform="translate(-7,-7)">
      <defs
         id="defs81">
        <path
           d="M 21.97,8 V 48.34 L 61.36,116 96,56 h 88 V 8 Z"
           id="m"
           inkscape:connector-curvature="0" />
      </defs>
      <clipPath
         id="n">
        <use
           id="use83"
           height="100%"
           xlink:href="#m"
           overflow="visible"
           width="100%"
           style="overflow:visible"
           x="0"
           y="0" />
      </clipPath>
      <g
         id="g90"
         clip-path="url(#n)">
        <path
           id="path86"
           d="m 8,184 h 83.77 l 38.88,-38.88 V 116 H 61.36 L 8,24.48 Z"
           inkscape:connector-curvature="0"
           style="fill:#0f9d58" />
        <path
           id="path88"
           d="m 8,184 h 83.77 l 38.88,-38.88 V 116 H 61.36 L 8,24.48 Z"
           style="fill:url(#linearGradient214)"
           inkscape:connector-curvature="0" />
      </g>
    </g>
    <path
       id="path99"
       transform="translate(-7,-7)"
       d="M 21.97,48.45 79.22,105.69 61.36,116 Z"
       clip-path="url(#b)"
       style="fill:url(#p)"
       inkscape:connector-curvature="0" />
    <path
       id="path106"
       transform="translate(-7,-7)"
       d="m 91.83,183.89 20.96,-78.2 17.86,10.31 z"
       clip-path="url(#b)"
       style="fill:url(#q)"
       inkscape:connector-curvature="0" />
    <g
       id="g112"
       clip-path="url(#b)"
       transform="translate(-7,-7)">
      <circle
         id="circle108"
         r="40"
         cx="96"
         cy="96"
         style="fill:#f1f1f1" />
      <circle
         id="circle110"
         r="32"
         cx="96"
         cy="96"
         style="fill:#4285f4" />
    </g>
    <g
       id="g122"
       clip-path="url(#b)"
       transform="translate(-7,-7)">
      <path
         id="path114"
         d="M 96,55 C 73.91,55 56,72.91 56,95 v 1 C 56,73.91 73.91,56 96,56 h 88 v -1 z"
         inkscape:connector-curvature="0"
         style="fill:#3e2723;fill-opacity:0.2" />
      <path
         id="path116"
         d="m 130.6,116 c -6.92,11.94 -19.81,20 -34.6,20 -14.8,0 -27.69,-8.06 -34.61,-20 H 61.35 L 8,24.48 v 1 L 61.36,117 h 0.04 c 6.92,11.94 19.81,20 34.61,20 14.79,0 27.68,-8.05 34.6,-20 h 0.05 v -1 z"
         inkscape:connector-curvature="0"
         style="fill:#ffffff;fill-opacity:0.1" />
      <path
         id="path118"
         d="m 97,56 c -0.17,0 -0.33,0.02 -0.5,0.03 21.86,0.27 39.5,18.05 39.5,39.97 0,21.92 -17.64,39.7 -39.5,39.97 0.17,0 0.33,0.03 0.5,0.03 22.09,0 40,-17.91 40,-40 0,-22.09 -17.91,-40 -40,-40 z"
         inkscape:connector-curvature="0"
         style="opacity:0.1;fill:#3e2723" />
      <path
         id="path120"
         d="m 131,117.33 c 3.4,-5.88 5.37,-12.68 5.37,-19.96 0,-4.22 -0.66,-8.28 -1.87,-12.09 0.95,3.42 1.5,7.01 1.5,10.73 0,7.28 -1.97,14.08 -5.37,19.96 l 0.02,0.04 -38.88,68 h 1.16 l 38.09,-66.64 z"
         inkscape:connector-curvature="0"
         style="fill:#ffffff;fill-opacity:0.2" />
    </g>
    <g
       id="g128"
       clip-path="url(#b)"
       transform="translate(-7,-7)">
      <path
         id="path124"
         d="m 96,9 c 48.43,0 87.72,39.13 87.99,87.5 0,-0.17 0.01,-0.33 0.01,-0.5 C 184,47.4 144.6,8 96,8 47.4,8 8,47.4 8,96 8,96.17 8.01,96.33 8.01,96.5 8.28,48.13 47.57,9 96,9 Z"
         inkscape:connector-curvature="0"
         style="fill:#ffffff;fill-opacity:0.2" />
      <path
         id="path126"
         d="m 96,183 c 48.43,0 87.72,-39.13 87.99,-87.5 0,0.17 0.01,0.33 0.01,0.5 0,48.6 -39.4,88 -88,88 C 47.4,184 8,144.6 8,96 8,95.83 8.01,95.67 8.01,95.5 8.28,143.87 47.57,183 96,183 Z"
         inkscape:connector-curvature="0"
         style="fill:#3e2723;fill-opacity:0.15" />
    </g>
    <circle
       id="circle135"
       r="88"
       cx="89"
       cy="89"
       style="fill:url(#r)" />
  </g>
  <g
     id="g669"
     transform="matrix(0.0609756,0,0,0.0609756,2.714792,3.8780464)">
    <path
       id="path642"
       style="fill:url(#radial-gradient)"
       d="m 805.285,93.558 c -23.947,27.884 -35.1,90.639 -10.818,154.256 24.282,63.617 61.5,49.8 84.7,114.673 30.623,85.6 16.369,200.589 16.369,200.589 0,0 36.814,106.609 62.468,-6.633 C 1014.787,343.74 805.285,145.937 805.285,93.558 Z"
       inkscape:connector-curvature="0" />
    <path
       style="fill:url(#radial-gradient-2)"
       d="m 513.072,976.638 c 245.236,0 443.9,-199.739 443.9,-446.028 C 956.972,284.321 758.308,84.583 513.31,84.583 268.312,84.583 69.65,284.322 69.65,530.61 69.175,777.137 268.073,976.638 513.072,976.638 Z"
       data-name="&lt;Path&gt;"
       id="_Path_"
       inkscape:connector-curvature="0" />
    <path
       id="path645"
       style="fill:url(#linear-gradient)"
       d="m 845.675,805.636 a 246.888,246.888 0 0 1 -30.123,18.183 704,704 0 0 0 38.3,-62.961 c 9.46,-10.47 18.126,-20.648 25.188,-31.653 3.437,-5.407 7.313,-12.079 11.416,-19.819 24.921,-44.9 52.4,-117.563 53.179,-192.2 v -0.18 c 0.018,-1.837 0.029,-3.675 0.014,-5.515 a 257.6,257.6 0 0 0 -5.712,-55.748 c 0.2,1.431 0.376,2.861 0.556,4.291 -0.221,-1.1 -0.407,-2.212 -0.644,-3.314 0.366,2.034 0.66,4 0.976,5.983 5.094,43.217 1.466,85.372 -16.682,116.45 -0.286,0.454 -0.58,0.879 -0.869,1.323 9.41,-47.234 12.558,-99.387 2.088,-151.6 0,0 -4.187,-25.383 -35.376,-102.441 -17.952,-44.353 -49.833,-80.716 -78,-107.207 -24.69,-30.546 -47.114,-51.045 -59.475,-64.06 -25.821,-27.189 -36.643,-47.569 -41.087,-60.867 -3.853,-1.932 -53.135,-49.807 -57.05,-51.631 -21.511,33.352 -89.162,137.675 -56.981,235.146 14.584,44.172 51.467,90.017 90.067,115.736 1.695,1.936 22.969,25.042 33.086,77.157 10.446,53.842 4.954,95.855 -16.546,157.983 -25.286,54.505 -90.067,108.388 -150.724,113.9 -129.676,11.781 -177.149,-65.108 -177.149,-65.108 46.336,18.525 97.568,14.65 128.724,-4.556 31.4,-19.425 50.394,-33.827 65.81,-28.148 15.2,5.653 27.3,-10.756 16.442,-27.767 a 78.5,78.5 0 0 0 -79.4,-34.573 c -31.433,5.109 -60.226,30.009 -101.412,5.894 a 85.528,85.528 0 0 1 -7.729,-5.062 c -2.715,-1.785 8.826,2.717 6.133,0.688 -8.015,-4.354 -22.2,-13.842 -25.88,-17.217 -0.613,-0.562 6.219,2.179 5.606,1.616 -38.51,-31.712 -33.7,-53.134 -32.49,-66.57 0.969,-10.749 7.964,-24.523 19.751,-30.11 5.693,3.107 9.24,5.479 9.24,5.479 0,0 -2.428,-4.961 -3.741,-7.576 0.46,-0.2 0.9,-0.147 1.358,-0.342 4.664,2.251 14.977,8.1 20.407,11.667 7.072,4.988 9.326,9.436 9.326,9.436 0,0 1.862,-1.025 0.485,-5.375 -0.5,-1.784 -2.647,-7.453 -9.652,-13.174 l 0.438,0.049 a 81.2,81.2 0 0 1 11.867,8.241 c 1.975,-7.181 5.527,-14.679 4.746,-28.092 -0.477,-9.431 -0.257,-11.873 -1.919,-15.515 -1.488,-3.128 0.834,-4.348 3.418,-1.1 a 32.826,32.826 0 0 0 -2.208,-7.4 l 0.022,-0.244 c 3.225,-11.236 68.248,-40.461 72.981,-43.877 a 67.355,67.355 0 0 0 19.132,-20.8 c 3.617,-5.763 6.337,-13.848 7,-26.112 0.355,-8.844 -3.759,-14.734 -69.507,-21.618 -17.981,-1.771 -28.531,-14.8 -34.526,-26.823 -1.094,-2.59 -2.209,-4.937 -3.325,-7.282 a 58,58 0 0 1 -2.558,-8.431 c 10.749,-30.873 28.81,-56.977 55.367,-76.7 1.447,-1.318 -5.782,0.338 -4.336,-0.98 1.687,-1.538 12.706,-5.977 14.787,-6.977 2.542,-1.2 -10.882,-6.9 -22.732,-5.512 -12.069,1.36 -14.632,2.8 -21.073,5.531 2.673,-2.661 11.173,-6.149 9.18,-6.126 -13.011,1.995 -29.179,9.558 -43,18.124 a 10.731,10.731 0 0 1 0.835,-4.348 c -6.441,2.732 -22.26,13.788 -26.865,23.142 a 44.329,44.329 0 0 0 0.266,-5.4 84.483,84.483 0 0 0 -13.195,13.818 l -0.241,0.219 c -37.358,-15.05 -70.233,-16.024 -98.053,-9.276 -6.086,-6.112 -9.059,-1.644 -22.907,-32.069 -0.941,-1.832 0.722,1.809 0,0 -2.278,-5.9 1.389,7.872 0,0 -23.284,18.372 -53.92,39.193 -68.626,53.89 -0.182,0.586 17.156,-4.9 0,0 -6.008,1.716 -5.6,5.281 -6.513,37.5 -0.22,2.443 -0.025,5.179 -0.223,7.378 -11.748,14.968 -19.749,27.643 -22.775,34.211 -15.193,26.18 -31.926,66.992 -48.146,131.551 A 334.364,334.364 0 0 1 110.2,400.365 C 96.712,434.632 83.673,488.443 81.066,571.31 a 483.614,483.614 0 0 1 12.533,-50.66 473.038,473.038 0 0 0 34.74,201.061 c 9.329,22.821 24.76,57.455 51.029,95.4 82.533,86.839 198.945,140.9 327.852,140.9 134.572,10e-4 255.415,-58.878 338.455,-152.375 z"
       inkscape:connector-curvature="0" />
    <path
       id="path647"
       style="fill:url(#radial-gradient-3)"
       d="m 746.1,868.708 c 162.87,-18.86 234.969,-186.7 142.381,-190 -83.633,-2.673 -219.527,198.9 -142.381,190 z"
       inkscape:connector-curvature="0" />
    <path
       id="path649"
       style="fill:url(#radial-gradient-4)"
       d="m 900.207,644.424 c 112.056,-65.214 82.839,-206.08 82.839,-206.08 0,0 -43.246,50.238 -72.625,130.32 -29.021,79.299 -77.584,115.148 -10.214,75.76 z"
       inkscape:connector-curvature="0" />
    <path
       id="path651"
       style="fill:url(#radial-gradient-5)"
       d="m 544.474,952.062 c 156.227,49.851 290.5,-73.22 207.733,-114.32 -75.251,-37.066 -281.883,90.748 -207.733,114.32 z"
       inkscape:connector-curvature="0" />
    <path
       id="path653"
       style="fill:url(#radial-gradient-6)"
       d="m 911.849,704.234 c 3.8,-5.363 8.94,-22.535 13.48,-30.211 27.582,-44.523 27.777,-80.023 27.777,-80.836 16.659,-83.219 15.148,-117.2 4.9,-180.043 -8.251,-50.6 -44.322,-123.092 -75.57,-158 -32.2,-35.965 -9.514,-24.247 -40.692,-50.518 C 814.417,174.333 787.921,144.335 773.491,132.271 669.215,45.094 671.571,26.577 673.579,23.42 c -0.339,0.371 -0.837,0.922 -1.472,1.643 C 670.872,20.14 670,16 670,16 c 0,0 -57,57 -69,152 -7.834,62.021 15.383,126.676 49,168 a 381.367,381.367 0 0 0 59,58 v -0.026 c 25.4,36.477 39.38,81.489 39.38,129.909 0,121.244 -98.341,219.531 -219.652,219.531 a 220.455,220.455 0 0 1 -49.134,-5.519 c -57.236,-10.908 -90.288,-39.781 -106.772,-59.382 -9.447,-11.234 -13.464,-19.423 -13.464,-19.423 51.283,18.371 107.986,14.528 142.468,-4.518 34.749,-19.265 55.774,-33.546 72.837,-27.915 16.82,5.606 30.211,-10.667 18.2,-27.536 -11.771,-16.845 -42.4,-40.97 -87.878,-34.286 -34.789,5.067 -66.657,29.76 -112.24,5.845 a 96.313,96.313 0 0 1 -8.554,-5.02 c -3.005,-1.771 9.768,2.695 6.787,0.682 -8.87,-4.318 -24.573,-13.728 -28.643,-17.074 -0.679,-0.557 6.883,2.161 6.2,1.6 -42.621,-31.449 -37.3,-52.693 -35.959,-66.018 1.073,-10.66 8.814,-24.32 21.859,-29.86 6.3,3.081 10.226,5.433 10.226,5.433 0,0 -2.688,-4.92 -4.141,-7.513 0.509,-0.194 0.994,-0.145 1.5,-0.339 5.162,2.232 16.576,8.029 22.586,11.57 7.827,4.947 10.322,9.358 10.322,9.358 0,0 2.061,-1.016 0.536,-5.33 -0.557,-1.769 -2.929,-7.391 -10.682,-13.065 l 0.485,0.049 a 90.851,90.851 0 0 1 13.134,8.173 c 2.186,-7.121 6.118,-14.557 5.253,-27.859 -0.528,-9.352 -0.284,-11.775 -2.124,-15.386 -1.647,-3.1 0.924,-4.312 3.782,-1.088 a 30.038,30.038 0 0 0 -2.444,-7.343 l 0.025,-0.242 c 3.57,-11.143 75.535,-40.125 80.773,-43.513 a 70.31,70.31 0 0 0 21.175,-20.63 c 4,-5.715 7.014,-13.733 7.748,-25.895 0.246,-5.48 -1.441,-9.817 -20.5,-13.965 -11.439,-2.49 -29.136,-4.913 -56.433,-7.474 -19.9,-1.756 -31.577,-14.676 -38.212,-26.6 -1.211,-2.569 -2.445,-4.9 -3.68,-7.222 a 53.108,53.108 0 0 1 -2.831,-8.36 158.47,158.47 0 0 1 61.279,-76.063 c 1.6,-1.308 -6.4,0.335 -4.8,-0.972 1.868,-1.525 14.063,-5.927 16.367,-6.919 2.813,-1.186 -12.044,-6.84 -25.159,-5.466 -13.357,1.349 -16.194,2.776 -23.323,5.486 2.959,-2.639 12.366,-6.1 10.161,-6.075 -14.4,1.978 -32.3,9.479 -47.6,17.973 a 9.676,9.676 0 0 1 0.924,-4.312 c -7.129,2.709 -24.637,13.674 -29.734,22.95 a 39.488,39.488 0 0 0 0.294,-5.354 88.678,88.678 0 0 0 -14.6,13.7 l -0.267,0.218 c -41.347,-14.925 -77.732,-15.891 -108.522,-9.2 -6.736,-6.061 -17.566,-15.226 -32.892,-45.4 -1.041,-1.817 -1.6,3.755 -2.4,1.961 -5.955,-13.813 -9.553,-36.444 -8.962,-52.046 0,0 -12.318,5.614 -22.513,29.06 -1.893,4.215 -3.107,6.54 -4.32,8.865 -0.558,0.678 1.265,-7.7 0.974,-7.244 -1.772,3 -6.356,7.192 -8.371,12.618 -1.384,4.021 -3.325,6.273 -4.564,11.288 l -0.291,0.46 c -0.1,-1.478 0.367,-6.081 0.027,-5.137 a 236.1,236.1 0 0 0 -12.308,29.841 c -5.489,18.046 -11.879,42.61 -12.892,74.565 -0.244,2.423 -0.027,5.136 -0.247,7.317 -13,14.844 -21.858,27.413 -25.207,33.928 C 75.18,329.762 56.66,370.236 38.707,434.259 A 319.143,319.143 0 0 1 67.245,384.27 C 52.316,418.253 37.885,471.618 35,553.8 a 438.522,438.522 0 0 1 13.872,-50.24 c -2.578,54.8 3.805,122.74 38.449,199.393 20.57,45.087 67.921,136.649 183.62,208.1 l -0.01,0.007 c 0,0 39.36,29.3 107.017,51.259 5,1.814 10.065,3.6 15.234,5.333 -1.622,-0.655 -3.191,-1.344 -4.715,-2.052 a 484.883,484.883 0 0 0 138.8,20.4 c 175.18,0.149 226.846,-70.2 226.846,-70.2 0,0 -0.182,0.137 -0.513,0.377 q 3.708,-3.491 7.143,-7.257 c -27.639,26.1 -90.715,27.832 -114.3,25.949 40.223,-11.813 66.691,-21.806 118.175,-41.519 q 9.037,-3.35 18.482,-7.64 c 0.681,-0.3 1.368,-0.625 2.052,-0.936 1.249,-0.582 2.486,-1.132 3.747,-1.744 a 349.205,349.205 0 0 0 70.262,-43.987 c 51.7,-41.3 62.949,-81.557 68.829,-108.1 -0.82,2.544 -3.375,8.475 -5.17,12.316 -13.315,28.482 -42.841,45.959 -74.908,60.948 A 688.993,688.993 0 0 0 890.3,741.773 c 10.467,-10.383 13.733,-26.625 21.549,-37.539 z"
       inkscape:connector-curvature="0" />
    <path
       id="path655"
       style="fill:url(#radial-gradient-7)"
       d="m 848.921,802.982 c 21.08,-23.241 40.01,-49.824 54.349,-79.968 36.9,-77.582 93.952,-206.58 49.018,-341.306 C 916.775,275.225 868.016,217 806.107,160.122 705.563,67.756 677.482,26.521 677.482,2 677.482,2 561.393,131.409 611.74,266.381 662.087,401.353 765.2,396.405 833.419,537.255 913.694,703 768.47,883.869 648.375,934.493 c 7.353,-1.633 266.97,-60.383 280.614,-208.882 -0.309,2.731 -6.159,43.803 -80.068,77.371 z"
       inkscape:connector-curvature="0" />
    <path
       id="path657"
       style="fill:url(#linear-gradient-2)"
       d="m 512.592,321.373 c 0.393,-8.77 -4.156,-14.66 -76.682,-21.463 -29.839,-2.755 -41.265,-30.334 -44.748,-41.941 -10.61,27.565 -14.991,56.49 -12.636,91.477 1.61,22.92 17.009,47.521 24.37,61.965 0,0 1.636,-2.126 2.391,-2.912 13.861,-14.431 71.936,-36.419 77.392,-39.541 6.014,-3.799 28.903,-20.523 29.913,-47.585 z"
       inkscape:connector-curvature="0" />
    <path
       id="path659"
       style="fill:url(#linear-gradient-3)"
       d="m 193.314,158.471 c -1.041,-1.818 -1.6,3.754 -2.4,1.961 -5.955,-13.813 -9.578,-36.2 -8.72,-52.022 0,0 -12.318,5.614 -22.513,29.06 -1.893,4.215 -3.107,6.54 -4.32,8.865 -0.558,0.678 1.265,-7.7 0.974,-7.244 -1.771,3 -6.355,7.192 -8.346,12.375 -1.651,4.239 -3.349,6.515 -4.613,11.772 -0.389,1.429 0.392,-6.323 0.052,-5.379 -23.711,45.825 -28.237,115.114 -25.738,112.184 50.478,-53.9 108.325,-66.683 108.325,-66.683 -6.155,-4.534 -19.528,-17.625 -32.7,-44.889 z"
       inkscape:connector-curvature="0" />
    <path
       id="path661"
       style="fill:url(#linear-gradient-4)"
       d="m 384.844,722.1 c -69.724,-29.769 -148.992,-71.755 -146,-167.138 4.075,-125.619 117.145,-100.791 117.145,-100.791 -4.267,1.039 -15.675,9.162 -19.718,17.82 -4.273,10.827 -12.069,35.276 11.551,60.9 37.089,40.192 -76.2,95.356 98.663,199.567 4.41,2.4 -40.991,-1.43 -61.639,-10.358 z"
       inkscape:connector-curvature="0" />
    <path
       id="path663"
       style="fill:url(#linear-gradient-5)"
       d="m 360.074,659.5 c 49.442,17.207 107.04,14.189 141.523,-4.858 23.085,-12.851 52.7,-33.434 70.922,-28.353 -15.777,-6.236 -27.726,-9.15 -42.1,-9.862 -2.448,0 -5.382,-0.052 -8.048,-0.32 a 136.228,136.228 0 0 0 -15.757,0.863 c -8.9,0.818 -18.766,6.433 -27.735,5.532 -0.485,-0.049 8.7,-3.774 7.953,-3.605 -4.752,0.991 -9.915,1.205 -15.37,1.881 -3.467,0.386 -6.449,0.82 -9.891,0.963 -102.982,8.733 -190.017,-55.813 -190.017,-55.813 -7.408,24.95 33.166,74.3 88.521,93.572 z"
       inkscape:connector-curvature="0" />
    <path
       id="path665"
       style="fill:url(#linear-gradient-6)"
       d="M 848.738,803.646 C 952.9,701.376 1005.6,577.061 983.321,437.627 c 0,0 8.9,71.5 -24.848,144.628 16.213,-71.393 18.1,-160.114 -24.975,-251.988 C 876.005,207.636 781.45,143.109 745.351,116.189 690.656,75.4 667.983,33.87 667.574,25.3 c -16.339,33.477 -65.766,148.2 -5.31,247 56.64,92.564 145.865,120.039 208.328,204.947 115.075,156.42 -21.854,326.399 -21.854,326.399 z"
       inkscape:connector-curvature="0" />
    <path
       id="path667"
       style="fill:url(#linear-gradient-7)"
       d="M 833.814,537.551 C 797.412,462.35 751.978,429.55 709,394 c 5,7 6.232,9.473 9,14 37.827,40.316 93.607,138.656 53.11,262.107 C 694.881,902.482 389.967,793.057 358,762.319 370.932,896.808 596.036,961.164 742.6,873.949 826,795 893.468,660.788 833.814,537.551 Z"
       inkscape:connector-curvature="0" />
  </g>
  <g
     transform="matrix(0.94247794,0,0,0.94248138,-142.54757,-166.21686)"
     id="layer1"
     inkscape:label="Capa 1">
    <g
       id="g2858">
      <path
         inkscape:connector-curvature="0"
         id="path2226"
         d="M 502.08277,148.5 A 89.107765,89.107765 0 0 1 412.975,237.60777 89.107765,89.107765 0 0 1 323.86724,148.5 89.107765,89.107765 0 0 1 412.975,59.392235 89.107765,89.107765 0 0 1 502.08277,148.5 Z"
         style="opacity:0.52999998;fill:#000000;fill-opacity:1;stroke:none;stroke-width:2.93077397;stroke-linecap:round;stroke-linejoin:round;stroke-miterlimit:4;stroke-dasharray:none;stroke-dashoffset:0;stroke-opacity:1;paint-order:markers stroke fill;filter:url(#filter2248)"
         transform="matrix(0.33864636,0,0,0.32609457,212.11606,166.11668)" />
      <path
         style="opacity:1;fill:url(#linearGradient2129);fill-opacity:1;stroke:#cdcdcd;stroke-width:0.09301235;stroke-linecap:round;stroke-linejoin:round;stroke-miterlimit:4;stroke-dasharray:none;stroke-dashoffset:0;stroke-opacity:1;paint-order:markers stroke fill"
         d="m 383.29373,211.97671 a 31.325188,31.325188 0 0 1 -31.32519,31.32519 31.325188,31.325188 0 0 1 -31.32518,-31.32519 31.325188,31.325188 0 0 1 31.32518,-31.32519 31.325188,31.325188 0 0 1 31.32519,31.32519 z"
         id="path826"
         inkscape:connector-curvature="0" />
      <path
         style="opacity:1;fill:url(#radialGradient2137);fill-opacity:1;stroke:none;stroke-width:0.94955933;stroke-linecap:round;stroke-linejoin:round;stroke-miterlimit:4;stroke-dasharray:none;stroke-dashoffset:0;stroke-opacity:1;paint-order:markers stroke fill"
         d="m 380.83911,211.97671 a 28.870571,28.870571 0 0 1 -28.87057,28.87057 28.870571,28.870571 0 0 1 -28.87057,-28.87057 28.870571,28.870571 0 0 1 28.87057,-28.87057 28.870571,28.870571 0 0 1 28.87057,28.87057 z"
         id="circle828"
         inkscape:connector-curvature="0" />
      <path
         style="opacity:1;fill:#f4f2f3;fill-opacity:1;stroke:none;stroke-width:0.38088897;stroke-linecap:round;stroke-linejoin:round;stroke-miterlimit:4;stroke-dasharray:none;stroke-dashoffset:0;stroke-opacity:1;paint-order:markers stroke fill"
         d="m 351.96854,184.61172 c -0.23319,0 -0.42092,0.18772 -0.42092,0.42092 v 4.85517 c 0,0.2332 0.18773,0.42092 0.42092,0.42092 0.2332,0 0.42092,-0.18772 0.42092,-0.42092 v -4.85517 c 0,-0.2332 -0.18772,-0.42092 -0.42092,-0.42092 z m -2.75367,0.17404 c -0.0279,-0.003 -0.0566,-0.003 -0.0856,3.5e-4 -0.23194,0.0242 -0.39917,0.2304 -0.37495,0.46234 l 0.21218,2.03119 c 0.0242,0.23194 0.23041,0.39918 0.46233,0.37496 0.23195,-0.0242 0.39919,-0.2304 0.37496,-0.46234 l -0.212,-2.03118 c -0.0212,-0.20295 -0.18177,-0.35637 -0.37695,-0.37532 z m 5.5266,0.002 c -0.19519,0.0188 -0.35578,0.17221 -0.37714,0.37513 l -0.21363,2.03102 c -0.0244,0.23192 0.14285,0.43831 0.37478,0.4627 0.23191,0.0244 0.43811,-0.14268 0.46251,-0.3746 l 0.21364,-2.03119 c 0.0244,-0.23192 -0.14286,-0.43814 -0.37478,-0.46252 -0.029,-0.003 -0.0575,-0.003 -0.0854,-5.2e-4 z m -8.3553,0.4082 c -0.028,2.2e-4 -0.0565,0.003 -0.085,0.009 -0.22814,0.0483 -0.37294,0.27089 -0.32464,0.49903 l 1.00552,4.74981 c 0.0483,0.22814 0.27088,0.37293 0.49902,0.32464 0.22814,-0.0483 0.37294,-0.27072 0.32465,-0.49886 l -1.00552,-4.74998 c -0.0423,-0.19963 -0.21792,-0.33543 -0.41401,-0.3339 z m 11.18382,0.004 c -0.19609,-0.002 -0.3718,0.13394 -0.41419,0.33353 l -1.00897,4.74925 c -0.0485,0.22811 0.0962,0.45076 0.32427,0.49922 0.22811,0.0485 0.45076,-0.0962 0.49921,-0.32428 l 1.00897,-4.74926 c 0.0485,-0.2281 -0.0962,-0.45076 -0.32427,-0.49921 -0.0285,-0.006 -0.057,-0.009 -0.085,-0.009 z m -13.88337,0.75717 c -0.0545,-0.005 -0.11077,0.001 -0.16622,0.0194 -0.22178,0.0721 -0.34238,0.3085 -0.27031,0.53028 l 0.6311,1.94236 c 0.0721,0.22179 0.30868,0.34238 0.53046,0.27032 0.22179,-0.0721 0.3422,-0.30868 0.27013,-0.53046 l -0.63109,-1.94236 c -0.054,-0.16634 -0.20059,-0.27568 -0.36407,-0.28958 z m 16.56765,0.001 c -0.16348,0.0139 -0.30999,0.12324 -0.36406,0.28957 l -0.63147,1.94218 c -0.0721,0.22177 0.0484,0.45837 0.27014,0.53046 0.22178,0.0721 0.45837,-0.0484 0.53047,-0.27013 l 0.63146,-1.94236 c 0.0721,-0.22178 -0.0484,-0.45837 -0.27014,-0.53046 -0.0554,-0.018 -0.11191,-0.0239 -0.1664,-0.0193 z m -19.23721,0.9759 c -0.0547,0.001 -0.11004,0.013 -0.16331,0.0367 -0.21298,0.0947 -0.30836,0.34244 -0.21364,0.55553 l 1.97197,4.43662 c 0.0947,0.21308 0.34244,0.30836 0.55553,0.21364 0.21298,-0.0947 0.30854,-0.34244 0.21382,-0.55553 l -1.97216,-4.43662 c -0.071,-0.15983 -0.22817,-0.25351 -0.39221,-0.25033 z m 21.93693,0.0149 c -0.16403,-0.003 -0.32132,0.0901 -0.39257,0.24979 l -1.97798,4.4339 c -0.095,0.21296 -4e-5,0.46088 0.21292,0.55589 0.21297,0.095 0.46088,5e-5 0.5559,-0.21291 l 1.97796,-4.43389 c 0.095,-0.21297 5e-5,-0.46089 -0.21291,-0.5559 -0.0532,-0.0237 -0.10864,-0.0357 -0.16332,-0.0369 z m -24.41484,1.29618 c -0.0808,-0.006 -0.16406,0.012 -0.23979,0.0558 -0.20196,0.1166 -0.27065,0.37302 -0.15406,0.57497 l 1.02115,1.76869 c 0.1166,0.20196 0.373,0.27065 0.57496,0.15405 0.20195,-0.1166 0.27065,-0.37301 0.15406,-0.57497 l -1.02115,-1.76868 c -0.0729,-0.12623 -0.20047,-0.20041 -0.33517,-0.20983 z m 26.85877,0 c -0.13468,0.009 -0.26211,0.0836 -0.33498,0.20983 l -1.02133,1.76868 c -0.1166,0.20196 -0.0477,0.45837 0.15424,0.57497 0.20196,0.1166 0.45837,0.0479 0.57497,-0.15405 l 1.02114,-1.76869 c 0.1166,-0.20195 0.0479,-0.45837 -0.15406,-0.57497 -0.0757,-0.0437 -0.15916,-0.0614 -0.23998,-0.0558 z m -29.26491,1.50073 c -0.081,0.003 -0.16211,0.029 -0.2329,0.0803 -0.18875,0.13693 -0.23048,0.39911 -0.0935,0.58787 l 2.85086,3.92995 c 0.13693,0.18876 0.39929,0.23049 0.58805,0.0936 0.18876,-0.13693 0.23049,-0.39911 0.0935,-0.58787 l -2.85104,-3.92995 c -0.0856,-0.11798 -0.22004,-0.17847 -0.35497,-0.17386 z m 31.70122,0.0214 c -0.13493,-0.005 -0.26941,0.0555 -0.35516,0.17331 l -2.8563,3.92614 c -0.1372,0.18857 -0.0958,0.45086 0.0928,0.58805 0.18858,0.13718 0.45087,0.0959 0.58806,-0.0926 l 2.85613,-3.92614 c 0.13718,-0.18858 0.0957,-0.45086 -0.0928,-0.58805 -0.0707,-0.0514 -0.15176,-0.0778 -0.23272,-0.0807 z m -33.85196,1.78231 c -0.10744,-0.006 -0.21708,0.0299 -0.30374,0.10791 -0.17332,0.15602 -0.18725,0.42109 -0.0312,0.59441 l 1.36648,1.51799 c 0.15601,0.17332 0.42109,0.18726 0.59441,0.0312 0.17332,-0.15602 0.18726,-0.42127 0.0312,-0.59459 l -1.3663,-1.51781 c -0.078,-0.0867 -0.18339,-0.13351 -0.29085,-0.13916 z m 35.97562,0.003 c -0.10745,0.006 -0.21282,0.0525 -0.29084,0.13915 l -1.36648,1.51763 c -0.15606,0.1733 -0.14224,0.43855 0.0311,0.59459 0.17329,0.15604 0.43837,0.14205 0.59441,-0.0312 l 1.36666,-1.51762 c 0.15605,-0.17331 0.14205,-0.43856 -0.0312,-0.59459 -0.0867,-0.078 -0.19611,-0.11354 -0.30357,-0.10791 z m -38.03696,1.97705 c -0.10745,0.006 -0.21266,0.0525 -0.29067,0.13916 -0.15602,0.17332 -0.14207,0.43839 0.0312,0.59441 l 3.60841,3.24834 c 0.17332,0.15603 0.43839,0.14207 0.5944,-0.0312 0.15603,-0.17331 0.14226,-0.43839 -0.0311,-0.59441 l -3.60858,-3.24834 c -0.0867,-0.078 -0.1963,-0.11356 -0.30376,-0.10791 z m 40.10831,0.0142 c -0.10745,-0.006 -0.21722,0.0298 -0.30393,0.10773 l -3.61059,3.24581 c -0.17342,0.15589 -0.18768,0.42097 -0.0318,0.5944 0.1559,0.17342 0.42117,0.18751 0.59459,0.0316 l 3.61077,-3.2458 c 0.17342,-0.1559 0.1875,-0.42098 0.0316,-0.59441 -0.078,-0.0867 -0.18322,-0.13361 -0.29066,-0.13933 z m -41.8225,2.18998 c -0.13494,-0.005 -0.26949,0.0558 -0.35515,0.17367 -0.13707,0.18866 -0.0955,0.4508 0.0932,0.58787 l 1.65224,1.20044 c 0.18866,0.13708 0.45079,0.0957 0.58786,-0.093 0.13708,-0.18866 0.0956,-0.45098 -0.093,-0.58805 l -1.65224,-1.20044 c -0.0707,-0.0514 -0.15193,-0.0776 -0.23289,-0.0805 z m 43.53505,0.0153 c -0.081,0.003 -0.16211,0.0289 -0.23289,0.0803 l -1.65297,1.19936 c -0.18875,0.13694 -0.2305,0.39929 -0.0936,0.58805 0.13695,0.18875 0.39912,0.23031 0.58787,0.0934 l 1.65316,-1.19935 c 0.18875,-0.13694 0.23031,-0.39912 0.0934,-0.58787 -0.0856,-0.11797 -0.22004,-0.17847 -0.35497,-0.17385 z m -45.13697,2.33585 c -0.13469,0.009 -0.26211,0.0836 -0.33499,0.20982 -0.1166,0.20195 -0.0479,0.45837 0.15405,0.57497 l 4.20463,2.42758 c 0.20195,0.1166 0.45837,0.0479 0.57497,-0.15405 0.1166,-0.20195 0.0479,-0.45837 -0.15405,-0.57497 l -4.20463,-2.42759 c -0.0757,-0.0437 -0.15917,-0.0614 -0.23998,-0.0558 z m 46.72744,0 c -0.0808,-0.006 -0.16425,0.012 -0.23998,0.0558 l -4.20463,2.42759 c -0.20195,0.1166 -0.27065,0.37302 -0.15405,0.57497 0.1166,0.20195 0.37302,0.27065 0.57497,0.15405 l 4.20482,-2.42758 c 0.20195,-0.1166 0.27064,-0.37302 0.15404,-0.57497 -0.0729,-0.12622 -0.20048,-0.20041 -0.33517,-0.20982 z m -47.9386,2.50606 c -0.16403,-0.004 -0.32133,0.0899 -0.39258,0.2496 -0.095,0.21298 -6e-5,0.46091 0.21292,0.5559 l 1.86532,0.83202 c 0.21298,0.095 0.46091,7e-5 0.5559,-0.2129 0.095,-0.21298 -1.2e-4,-0.46091 -0.21309,-0.5559 l -1.86515,-0.83202 c -0.0532,-0.0238 -0.10865,-0.0356 -0.16332,-0.0367 z m 49.15794,0.0173 c -0.0547,10e-4 -0.11024,0.013 -0.16351,0.0367 l -1.86569,0.83057 c -0.21304,0.0949 -0.3083,0.34267 -0.21346,0.55571 0.0949,0.21304 0.34286,0.3083 0.5559,0.21346 l 1.8657,-0.83076 c 0.21303,-0.0948 0.30811,-0.34267 0.21327,-0.55571 -0.0711,-0.15978 -0.22818,-0.25323 -0.39221,-0.24997 z m -50.23739,2.60199 c -0.16349,0.0137 -0.31006,0.12291 -0.36424,0.28921 -0.0722,0.22172 0.048,0.45839 0.26977,0.53064 l 4.61629,1.50418 c 0.22171,0.0722 0.45839,-0.0481 0.53064,-0.26977 0.0722,-0.22172 -0.048,-0.4584 -0.26977,-0.53064 l -4.61628,-1.50419 c -0.0554,-0.0181 -0.11192,-0.024 -0.16641,-0.0194 z m 51.31484,0.018 c -0.0545,-0.005 -0.11078,10e-4 -0.16623,0.0194 l -4.61736,1.50092 c -0.22178,0.0721 -0.34223,0.30869 -0.27014,0.53046 0.0721,0.22177 0.30868,0.34223 0.53046,0.27014 l 4.61719,-1.50092 c 0.22178,-0.0721 0.3424,-0.30869 0.27032,-0.53046 -0.0541,-0.16633 -0.20077,-0.2757 -0.36424,-0.28957 z m -51.98736,2.73152 c -0.1961,-0.002 -0.37196,0.13412 -0.41438,0.33371 -0.0485,0.2281 0.0962,0.45073 0.32427,0.49922 l 1.99777,0.42455 c 0.2281,0.0485 0.45072,-0.0962 0.49921,-0.32427 0.0485,-0.22811 -0.0962,-0.45074 -0.32427,-0.49922 l -1.99759,-0.42455 c -0.0285,-0.006 -0.057,-0.009 -0.085,-0.009 z m 52.65462,0.004 c -0.028,2.3e-4 -0.0563,0.004 -0.0848,0.009 l -1.99778,0.42437 c -0.2281,0.0485 -0.37271,0.27093 -0.32426,0.49904 0.0485,0.2281 0.2711,0.3729 0.49921,0.32445 l 1.99759,-0.42437 c 0.2281,-0.0485 0.3729,-0.27111 0.32445,-0.49922 -0.0424,-0.19959 -0.21829,-0.33537 -0.41437,-0.33371 z m -53.16365,2.76167 c -0.1952,0.0187 -0.35587,0.17185 -0.37731,0.37477 -0.0245,0.2319 0.14232,0.43838 0.37422,0.46288 l 4.82829,0.51048 c 0.2319,0.0245 0.43838,-0.1425 0.46288,-0.37441 0.0245,-0.2319 -0.1425,-0.43838 -0.37441,-0.46288 l -4.82828,-0.51048 c -0.029,-0.003 -0.0575,-0.003 -0.0854,-3.5e-4 z m 53.6763,0.0363 c -0.0279,-0.003 -0.0566,-0.003 -0.0856,3.5e-4 l -4.82883,0.50394 c -0.23194,0.0242 -0.39914,0.2304 -0.37496,0.46233 0.0242,0.23194 0.2304,0.39918 0.46234,0.37496 l 4.82883,-0.50394 c 0.23193,-0.0242 0.39914,-0.2304 0.37496,-0.46234 -0.0212,-0.20294 -0.1816,-0.35634 -0.37678,-0.37532 z m -53.75805,2.79473 c -0.2332,0 -0.42091,0.18772 -0.42091,0.42092 0,0.23319 0.18771,0.42091 0.42091,0.42091 h 2.04228 c 0.23319,0 0.4211,-0.18772 0.4211,-0.42091 0,-0.2332 -0.18791,-0.42092 -0.4211,-0.42092 z m 51.79298,0 c -0.23319,0 -0.42092,0.18772 -0.42092,0.42092 10e-6,0.23319 0.18773,0.42091 0.42092,0.42091 h 2.04228 c 0.23319,0 0.42092,-0.18772 0.42092,-0.42091 0,-0.2332 -0.18773,-0.42092 -0.42092,-0.42092 z m -46.80319,2.29461 c -0.0279,-0.003 -0.0564,-0.003 -0.0854,3.5e-4 l -4.82902,0.50394 c -0.23194,0.0242 -0.39913,0.2304 -0.37495,0.46233 0.0242,0.23194 0.2304,0.39918 0.46233,0.37496 l 4.82902,-0.50394 c 0.23194,-0.0242 0.39913,-0.2304 0.37495,-0.46234 -0.0212,-0.20294 -0.18177,-0.35634 -0.37695,-0.37531 z m 43.85314,0.0298 c -0.19521,0.0187 -0.35588,0.17186 -0.37732,0.37478 -0.0245,0.2319 0.14233,0.43838 0.37423,0.46288 l 4.82829,0.51048 c 0.23191,0.0245 0.43837,-0.14251 0.46288,-0.37441 0.0245,-0.2319 -0.14251,-0.43838 -0.37441,-0.46288 l -4.8281,-0.51048 c -0.029,-0.003 -0.0577,-0.003 -0.0856,-3.5e-4 z m -46.2602,2.8436 c -0.028,2.4e-4 -0.0565,0.003 -0.085,0.009 l -1.99777,0.42436 c -0.22811,0.0485 -0.37271,0.27111 -0.32427,0.49922 0.0485,0.22811 0.27111,0.37272 0.49922,0.32427 l 1.99777,-0.42419 c 0.2281,-0.0485 0.37271,-0.27111 0.32426,-0.49921 -0.0424,-0.1996 -0.2181,-0.33537 -0.41419,-0.33372 z m 48.66925,0.004 c -0.19609,-0.002 -0.37177,0.13394 -0.41419,0.33353 -0.0485,0.2281 0.096,0.45074 0.32409,0.49922 l 1.99777,0.42455 c 0.22809,0.0485 0.45073,-0.096 0.49921,-0.32409 0.0485,-0.2281 -0.0962,-0.45092 -0.32426,-0.4994 l -1.9976,-0.42455 c -0.0285,-0.006 -0.057,-0.009 -0.085,-0.009 z m -45.30519,1.65787 c -0.0545,-0.005 -0.11077,0.001 -0.16622,0.0194 l -4.61736,1.50091 c -0.22178,0.0721 -0.34223,0.30869 -0.27014,0.53046 0.0721,0.22178 0.30868,0.34222 0.53046,0.27014 l 4.61719,-1.50092 c 0.22178,-0.0721 0.34241,-0.30869 0.27032,-0.53046 -0.0541,-0.16633 -0.20077,-0.2757 -0.36425,-0.28957 z m 41.93713,0.0149 c -0.16349,0.0137 -0.31005,0.12292 -0.36423,0.28921 -0.0722,0.22173 0.048,0.4584 0.26977,0.53065 l 4.61628,1.50418 c 0.22172,0.0722 0.4584,-0.0481 0.53064,-0.26977 0.0723,-0.22172 -0.048,-0.4584 -0.26977,-0.53065 l -4.61628,-1.50418 c -0.0554,-0.0181 -0.11191,-0.024 -0.16641,-0.0194 z m -43.69909,3.27251 c -0.0547,0.001 -0.11006,0.0128 -0.16332,0.0365 l -1.86587,0.83075 c -0.21304,0.0948 -0.30812,0.34267 -0.21328,0.55571 0.0949,0.21304 0.34268,0.30812 0.55571,0.21328 l 1.86589,-0.83058 c 0.21303,-0.0948 0.30811,-0.34267 0.21327,-0.55571 -0.0711,-0.15978 -0.22837,-0.25323 -0.3924,-0.24997 z m 45.45888,0.016 c -0.16403,-0.004 -0.32133,0.0899 -0.39258,0.24961 -0.095,0.21297 -6e-5,0.4609 0.21291,0.55589 l 1.86515,0.83202 c 0.21297,0.095 0.46091,6e-5 0.5559,-0.21291 0.095,-0.21297 6e-5,-0.4609 -0.21291,-0.55589 l -1.86515,-0.83203 c -0.0532,-0.0238 -0.10864,-0.0356 -0.16332,-0.0367 z m -41.82613,0.91214 c -0.0808,-0.006 -0.16424,0.012 -0.23998,0.0558 l -4.20463,2.42758 c -0.20195,0.1166 -0.27065,0.37302 -0.15405,0.57497 0.1166,0.20195 0.37302,0.27065 0.57497,0.15405 l 4.20463,-2.4274 c 0.20195,-0.1166 0.27064,-0.3732 0.15405,-0.57515 -0.0729,-0.12622 -0.2003,-0.20041 -0.33499,-0.20982 z m 38.20028,0 c -0.13469,0.009 -0.26229,0.0836 -0.33517,0.20982 -0.1166,0.20195 -0.0479,0.45855 0.15405,0.57515 l 4.20463,2.4274 c 0.20196,0.1166 0.45855,0.0479 0.57515,-0.15405 0.1166,-0.20195 0.0479,-0.45837 -0.15404,-0.57497 l -4.20482,-2.42758 c -0.0757,-0.0437 -0.15899,-0.0614 -0.2398,-0.0558 z m -39.24903,3.56244 c -0.081,0.003 -0.16211,0.0291 -0.2329,0.0805 l -1.65296,1.19935 c -0.18875,0.13694 -0.2305,0.39912 -0.0936,0.58787 0.13695,0.18875 0.39912,0.2305 0.58787,0.0935 l 1.65314,-1.19935 c 0.18877,-0.13693 0.23051,-0.39911 0.0936,-0.58786 -0.0856,-0.11797 -0.22022,-0.17866 -0.35516,-0.17404 z m 40.28761,0.0142 c -0.13494,-0.005 -0.26948,0.0558 -0.35515,0.17367 -0.13708,0.18865 -0.0955,0.45098 0.0932,0.58805 l 1.65224,1.20044 c 0.18866,0.13707 0.4508,0.0955 0.58787,-0.0932 0.13707,-0.18866 0.0956,-0.4508 -0.093,-0.58787 l -1.65224,-1.20044 c -0.0707,-0.0514 -0.15193,-0.0778 -0.23289,-0.0807 z m -36.54387,0.14533 c -0.10743,-0.006 -0.21702,0.0298 -0.30374,0.10773 l -3.61076,3.2458 c -0.17342,0.15589 -0.18751,0.42098 -0.0316,0.59441 0.15589,0.17342 0.42097,0.1875 0.5944,0.0316 l 3.61077,-3.2458 c 0.17342,-0.15589 0.18751,-0.42098 0.0316,-0.59441 -0.0779,-0.0867 -0.18322,-0.13361 -0.29067,-0.13933 z m 32.80012,0.0116 c -0.10745,0.006 -0.21283,0.0525 -0.29084,0.13915 -0.15603,0.17332 -0.14207,0.43839 0.0312,0.59441 l 3.60841,3.24834 c 0.17332,0.15604 0.43857,0.14208 0.59459,-0.0312 0.15603,-0.17331 0.14207,-0.43839 -0.0312,-0.5944 l -3.6086,-3.24835 c -0.0867,-0.078 -0.19611,-0.11355 -0.30356,-0.10791 z m -29.37464,3.08358 c -0.13493,-0.005 -0.2696,0.0554 -0.35534,0.1733 l -2.85613,3.92614 c -0.13719,0.18858 -0.0959,0.45087 0.0926,0.58805 0.18857,0.13719 0.45087,0.0959 0.58805,-0.0927 l 2.85613,-3.92614 c 0.13718,-0.18857 0.0959,-0.45086 -0.0926,-0.58805 -0.0707,-0.0514 -0.15175,-0.0778 -0.23271,-0.0806 z m 25.93573,0.0176 c -0.081,0.003 -0.16211,0.0289 -0.2329,0.0803 -0.18875,0.13694 -0.23048,0.39911 -0.0936,0.58787 l 2.85086,3.92995 c 0.13693,0.18876 0.39911,0.2305 0.58787,0.0936 0.18876,-0.13693 0.23049,-0.3991 0.0936,-0.58786 l -2.85086,-3.92996 c -0.0856,-0.11797 -0.22004,-0.17846 -0.35498,-0.17385 z m -29.6228,0.6064 c -0.10745,0.006 -0.21282,0.0525 -0.29084,0.13915 l -1.36649,1.51763 c -0.15605,0.1733 -0.14223,0.43855 0.0311,0.59459 0.1733,0.15604 0.43837,0.14205 0.5944,-0.0313 l 1.36666,-1.51762 c 0.15606,-0.1733 0.14206,-0.43856 -0.0312,-0.59459 -0.0867,-0.078 -0.19611,-0.11354 -0.30357,-0.10791 z m 33.33076,0.002 c -0.10745,-0.006 -0.21691,0.0299 -0.30356,0.10791 -0.17333,0.156 -0.18726,0.42108 -0.0313,0.5944 l 1.3663,1.51799 c 0.15602,0.17333 0.42109,0.18726 0.59442,0.0312 0.17332,-0.15601 0.18726,-0.42126 0.0312,-0.59459 l -1.36631,-1.5178 c -0.078,-0.0867 -0.18339,-0.13351 -0.29084,-0.13916 z m -25.65524,1.68366 c -0.16403,-0.004 -0.32114,0.0899 -0.39239,0.24961 l -1.97816,4.43389 c -0.095,0.21297 -5e-5,0.46089 0.21292,0.5559 0.21296,0.095 0.46089,5e-5 0.55589,-0.21291 l 1.97815,-4.4339 c 0.095,-0.21296 5e-5,-0.46089 -0.21292,-0.55589 -0.0532,-0.0238 -0.10881,-0.0356 -0.16349,-0.0367 z m 17.95556,0.0122 c -0.0547,0.001 -0.11023,0.0128 -0.1635,0.0365 -0.21297,0.0947 -0.30836,0.34244 -0.21363,0.55553 l 1.97196,4.43662 c 0.0947,0.21297 0.34262,0.30836 0.55571,0.21364 0.21298,-0.0947 0.30836,-0.34244 0.21364,-0.55553 l -1.97197,-4.43662 c -0.071,-0.15973 -0.22818,-0.25329 -0.39221,-0.25015 z m -21.43154,1.35867 c -0.13468,0.009 -0.26212,0.0836 -0.33498,0.20982 l -1.02115,1.76869 c -0.11659,0.20195 -0.0479,0.45837 0.15406,0.57497 0.20195,0.1166 0.45837,0.0479 0.57496,-0.15405 l 1.02115,-1.76869 c 0.11659,-0.20195 0.0479,-0.45837 -0.15406,-0.57497 -0.0757,-0.0437 -0.15916,-0.0614 -0.23998,-0.0558 z m 24.93421,0 c -0.0808,-0.006 -0.16406,0.0121 -0.23979,0.0558 -0.20195,0.1166 -0.27065,0.37302 -0.15405,0.57497 l 1.02114,1.76869 c 0.1166,0.20195 0.37302,0.27064 0.57496,0.15405 0.20196,-0.1166 0.27066,-0.37302 0.15406,-0.57497 l -1.02114,-1.76869 c -0.0729,-0.12622 -0.20049,-0.20041 -0.33518,-0.20982 z m -17.0545,0.0634 c -0.19609,-0.002 -0.3718,0.13394 -0.41419,0.33354 l -1.00897,4.74926 c -0.0485,0.2281 0.0962,0.45076 0.32427,0.49921 0.22811,0.0485 0.45076,-0.0962 0.49922,-0.32427 l 1.00896,-4.74926 c 0.0485,-0.2281 -0.0962,-0.45076 -0.32427,-0.49921 -0.0285,-0.006 -0.057,-0.009 -0.085,-0.009 z m 9.1599,0.003 c -0.028,2.2e-4 -0.0563,0.003 -0.0848,0.009 -0.22814,0.0483 -0.37294,0.27071 -0.32465,0.49885 l 1.00553,4.74999 c 0.0483,0.22814 0.27088,0.37293 0.49903,0.32464 0.22814,-0.0483 0.37293,-0.27089 0.32464,-0.49903 l -1.0057,-4.74965 c -0.0423,-0.19963 -0.21793,-0.33543 -0.41402,-0.33391 z m -4.5725,0.47905 c -0.23319,0 -0.42092,0.18772 -0.42092,0.42092 v 4.85517 c 0,0.2332 0.18773,0.42092 0.42092,0.42092 0.2332,0 0.42092,-0.18772 0.42092,-0.42092 v -4.85517 c 0,-0.2332 -0.18772,-0.42092 -0.42092,-0.42092 z m -7.72657,1.56886 c -0.16347,0.0139 -0.31017,0.12324 -0.36423,0.28957 l -0.63129,1.94236 c -0.0721,0.22178 0.0484,0.45837 0.27014,0.53047 0.22177,0.0721 0.45836,-0.0486 0.53046,-0.27032 l 0.63128,-1.94218 c 0.0721,-0.22177 -0.0484,-0.45836 -0.27013,-0.53046 -0.0554,-0.018 -0.11173,-0.024 -0.16623,-0.0194 z m 15.44987,0.001 c -0.0545,-0.005 -0.11078,0.001 -0.16622,0.0193 -0.22178,0.0721 -0.34238,0.30868 -0.27033,0.53047 l 0.63111,1.94235 c 0.0721,0.22179 0.30868,0.3422 0.53046,0.27014 0.22178,-0.0721 0.34238,-0.3085 0.27032,-0.53028 l -0.63128,-1.94236 c -0.0541,-0.16634 -0.20058,-0.27568 -0.36406,-0.28957 z m -10.36543,1.08181 c -0.1952,0.0188 -0.356,0.17203 -0.37732,0.37496 l -0.21346,2.03119 c -0.0244,0.23192 0.14268,0.43812 0.3746,0.46252 0.23192,0.0244 0.4383,-0.14268 0.4627,-0.3746 l 0.21345,-2.03101 c 0.0244,-0.23192 -0.14268,-0.4383 -0.37458,-0.4627 -0.029,-0.003 -0.0575,-0.003 -0.0854,-3.5e-4 z m 5.26736,0.002 c -0.0279,-0.003 -0.0566,-0.003 -0.0856,3.5e-4 -0.23193,0.0242 -0.39917,0.2304 -0.37495,0.46233 l 0.21218,2.03138 c 0.0242,0.23193 0.2304,0.399 0.46234,0.37478 0.23193,-0.0242 0.39918,-0.23041 0.37496,-0.46234 l -0.212,-2.03119 c -0.0212,-0.20295 -0.18178,-0.35637 -0.37697,-0.37533 z"
         id="rect830"
         inkscape:connector-curvature="0" />
      <path
         style="opacity:0.40900005;fill:#000000;fill-opacity:1;stroke:none;stroke-width:1.5614785;stroke-linecap:round;stroke-linejoin:round;stroke-miterlimit:4;stroke-dasharray:none;stroke-dashoffset:0;stroke-opacity:1;paint-order:markers stroke fill;filter:url(#filter2222)"
         d="m 469.09621,100.6068 -65.50955,38.06124 -41.41979,65.20654 60.59382,-44.88117 z"
         id="path2150"
         inkscape:connector-curvature="0"
         sodipodi:nodetypes="ccccc"
         transform="matrix(0.35154274,0,0,0.35154274,206.79018,159.77261)" />
      <g
         id="g2847">
        <path
           transform="matrix(0.64804473,-0.3316906,-0.36122382,0.63205852,329.21345,156.86272)"
           inkscape:transform-center-y="-13.18648"
           d="m 129.8387,160.80256 -23.01419,-23.01419 31.43796,-8.42378 z"
           inkscape:randomized="0"
           inkscape:rounded="1.35308e-016"
           inkscape:flatsided="true"
           sodipodi:arg2="2.3561945"
           sodipodi:arg1="1.3089969"
           sodipodi:r2="9.395503"
           sodipodi:r1="18.791006"
           sodipodi:cy="142.65184"
           sodipodi:cx="124.97523"
           sodipodi:sides="3"
           id="path2096"
           style="opacity:1;fill:#ff5150;fill-opacity:1;stroke:none;stroke-width:1.01970422;stroke-linecap:round;stroke-linejoin:round;stroke-miterlimit:4;stroke-dasharray:none;stroke-dashoffset:0;stroke-opacity:1;paint-order:markers stroke fill"
           sodipodi:type="star" />
        <path
           sodipodi:type="star"
           style="opacity:1;fill:#f1f1f1;fill-opacity:1;stroke:none;stroke-width:1.01970422;stroke-linecap:round;stroke-linejoin:round;stroke-miterlimit:4;stroke-dasharray:none;stroke-dashoffset:0;stroke-opacity:1;paint-order:markers stroke fill"
           id="path2099"
           sodipodi:sides="3"
           sodipodi:cx="124.97523"
           sodipodi:cy="142.65184"
           sodipodi:r1="18.791006"
           sodipodi:r2="9.395503"
           sodipodi:arg1="1.3089969"
           sodipodi:arg2="2.3561945"
           inkscape:flatsided="true"
           inkscape:rounded="1.35308e-016"
           inkscape:randomized="0"
           d="m 129.8387,160.80256 -23.01419,-23.01419 31.43796,-8.42378 z"
           inkscape:transform-center-y="13.186483"
           transform="matrix(-0.36122382,0.63205852,0.64804473,-0.3316906,297.96259,186.70411)" />
        <path
           inkscape:connector-curvature="0"
           id="path2112"
           d="m 331.85294,231.18507 23.41607,-15.75201 16.81513,-22.66472 z"
           style="opacity:0.24299999;fill:#000000;stroke:none;stroke-width:0.09301235px;stroke-linecap:butt;stroke-linejoin:miter;stroke-opacity:1" />
      </g>
    </g>
  </g>
  <g
     transform="matrix(0.28464711,0,0,0.28464711,220.54941,-75.245228)"
     id="layer1-3">
    <path
       d="m 533.03,388.73 c 0,-16.968 -4.387,-32.909 -12.08,-46.761 32.791,-74.213 -35.136,-63.343 -38.918,-62.603 -14.391,2.816 -27.705,7.337 -39.986,13.068 -1.811,-0.102 -3.633,-0.158 -5.469,-0.158 -45.833,0 -84.198,31.968 -94.017,74.823 24.157,-27.101 41.063,-38.036 51.187,-42.412 -1.616,1.444 -3.198,2.904 -4.754,4.375 -0.518,0.489 -1.017,0.985 -1.528,1.477 -1.026,0.987 -2.05,1.975 -3.05,2.972 -0.595,0.593 -1.174,1.191 -1.76,1.788 -0.887,0.903 -1.772,1.805 -2.638,2.713 -0.615,0.645 -1.215,1.292 -1.819,1.938 -0.809,0.866 -1.613,1.733 -2.402,2.603 -0.613,0.676 -1.216,1.352 -1.818,2.03 -0.748,0.842 -1.489,1.684 -2.22,2.528 -0.606,0.7 -1.207,1.4 -1.801,2.101 -0.693,0.818 -1.377,1.636 -2.054,2.454 -0.599,0.724 -1.196,1.447 -1.782,2.17 -0.634,0.782 -1.254,1.563 -1.873,2.343 -0.6,0.756 -1.2,1.511 -1.786,2.266 -0.558,0.719 -1.1,1.435 -1.646,2.152 -0.616,0.81 -1.237,1.62 -1.837,2.426 -0.429,0.577 -0.841,1.148 -1.262,1.723 -3.811,5.2 -7.293,10.3 -10.438,15.199 -0.008,0.012 -0.016,0.024 -0.023,0.036 -0.828,1.29 -1.627,2.561 -2.41,3.821 -0.042,0.068 -0.086,0.137 -0.128,0.206 -0.784,1.265 -1.541,2.508 -2.279,3.738 -0.026,0.043 -0.053,0.087 -0.079,0.13 -1.984,3.311 -3.824,6.503 -5.481,9.506 -8.687,15.743 -12.916,26.742 -13.099,27.395 -27.432,98.072 58.184,56.657 70.131,50.475 12.864,6.355 27.346,9.932 42.666,9.932 41.94,0 77.623,-26.771 90.905,-64.156 h -50.68 c -7.499,12.669 -21.936,21.25 -38.522,21.25 -24.301,0 -44,-18.412 -44,-41.125 h 137.96 c 0.523,-4.068 0.794,-8.214 0.794,-12.423 z m -18.018,-94.916 c 8.306,5.606 14.968,14.41 3.527,44.059 -10.973,-17.647 -27.482,-31.49 -47.104,-39.099 8.926,-4.311 31.031,-13.429 43.577,-4.96 z m -176.52,181.24 c -6.765,-6.938 -7.961,-23.836 6.967,-54.628 7.534,21.661 22.568,39.811 42,51.33 -9.664,5.319 -35.32,17.295 -48.967,3.298 z m 55.571,-100.28 c 0.771,-22.075 19.983,-39.75 43.588,-39.75 23.604,0 42.817,17.675 43.588,39.75 z"
       id="svg"
       inkscape:connector-curvature="0"
       style="fill:#1ebbee" />
  </g>
  <path
     id="path910"
     d="m 255.31352,39.625 c 0,1.44375 0.21563,2.75625 0.65625,3.9375 0.46875,1.1625 1.07812,2.203125 1.85625,3.1125 0.77813,0.909375 1.6875,1.6875 2.75625,2.34375 1.03125,0.65625 2.15625,1.2 3.35625,1.621875 1.19062,0.43125 2.4375,0.75 3.70312,0.95625 1.28438,0.20625 2.53125,0.309375 3.79688,0.309375 1.59375,0 3.075,-0.121875 4.48125,-0.375 1.40625,-0.2625 2.775,-0.609375 4.125,-1.05 1.35,-0.440625 2.65312,-0.965625 3.95625,-1.565625 1.3125,-0.6 2.64375,-1.25625 4.0125,-1.9875 v 12.7125 c -1.52813,0.75 -3.02813,1.378125 -4.52813,1.921875 -1.5,0.525 -3,0.984375 -4.52812,1.35 -1.52812,0.375 -3.075,0.65625 -4.65938,0.825 -1.58437,0.16875 -3.20625,0.2625 -4.89375,0.2625 -2.25,0 -4.425,-0.2625 -6.51562,-0.778125 -2.09063,-0.515625 -4.05,-1.25625 -5.8875,-2.23125 -1.8375,-0.975 -3.51563,-2.15625 -5.04375,-3.54375 -1.5375,-1.3875 -2.84062,-2.953125 -3.9375,-4.6875 -1.09688,-1.734375 -1.94063,-3.6375 -2.55,-5.68125 -0.59063,-2.04375 -0.89063,-4.21875 -0.89063,-6.525 0,-2.465625 0.3375,-4.809375 1.0125,-7.05 0.68438,-2.25 1.65,-4.29375 2.925,-6.16875 1.26563,-1.875 2.8125,-3.54375 4.64063,-4.996875 1.82812,-1.453125 3.88125,-2.64375 6.16875,-3.5625 -1.24688,1.246875 -2.22188,2.71875 -2.90625,4.434375 -0.70313,1.70625 -1.14375,3.421875 -1.34063,5.1375 h 21.35625 c 0,-2.15625 -0.21562,-4.03125 -0.65625,-5.64375 -0.44062,-1.6125 -1.14375,-2.953125 -2.12812,-4.0125 -0.975,-1.06875 -2.23125,-1.875 -3.77813,-2.4 -1.54687,-0.534375 -3.4125,-0.80625 -5.59687,-0.80625 -2.57813,0 -5.15625,0.375 -7.73438,1.153125 -2.57812,0.75 -5.025,1.828125 -7.35,3.1875 -2.325,1.378125 -4.4625,3 -6.4125,4.85625 -1.95,1.875 -3.59062,3.890625 -4.92187,6.075 0.28125,-2.53125 0.84375,-4.96875 1.62187,-7.284375 0.77813,-2.315625 1.80938,-4.471875 3.04688,-6.46875 1.2375,-1.96875 2.69062,-3.76875 4.35,-5.38125 1.65937,-1.6125 3.49687,-3 5.53125,-4.125 2.03437,-1.125 4.19062,-2.034375 6.53437,-2.64375 C 261.28539,4.31875 263.77914,4 266.40414,4 c 1.5375,0 3.06563,0.140625 4.59375,0.4125 1.52813,0.28125 3.01875,0.65625 4.47188,1.14375 2.8875,0.99375 5.46562,2.38125 7.73437,4.14375 2.26875,1.78125 4.17188,3.80625 5.71875,6.121875 1.54688,2.315625 2.71875,4.875 3.525,7.659375 0.80625,2.784375 1.21875,5.68125 1.21875,8.690625 V 39.625 Z"
     inkscape:connector-curvature="0"
     style="fill:#0078d7;stroke-width:0.9375" />
</svg>
