<?xml version="1.0" encoding="UTF-8" standalone="no"?>
<svg
   xmlns:dc="http://purl.org/dc/elements/1.1/"
   xmlns:cc="http://creativecommons.org/ns#"
   xmlns:rdf="http://www.w3.org/1999/02/22-rdf-syntax-ns#"
   xmlns:svg="http://www.w3.org/2000/svg"
   xmlns="http://www.w3.org/2000/svg"
   xmlns:sodipodi="http://sodipodi.sourceforge.net/DTD/sodipodi-0.dtd"
   xmlns:inkscape="http://www.inkscape.org/namespaces/inkscape"
   inkscape:version="1.0 (4035a4fb49, 2020-05-01)"
   sodipodi:docname="github.svg"
   viewBox="0 0 768 384"
   height="384"
   width="768"
   xml:space="preserve"
   id="svg10"
   version="1.1"><metadata
     id="metadata16"><rdf:RDF><cc:Work
         rdf:about=""><dc:format>image/svg+xml</dc:format><dc:type
           rdf:resource="http://purl.org/dc/dcmitype/StillImage" /><dc:title></dc:title></cc:Work></rdf:RDF></metadata><defs
     id="defs14"><clipPath
       id="clipPath28"
       clipPathUnits="userSpaceOnUse"><path
         id="path26"
         d="M 0,576 H 576 V 0 H 0 Z" /></clipPath></defs><sodipodi:namedview
     inkscape:current-layer="g18"
     inkscape:window-maximized="0"
     inkscape:window-y="0"
     inkscape:window-x="0"
     inkscape:cy="261.04347"
     inkscape:cx="447.4685"
     inkscape:zoom="0.76879448"
     showgrid="false"
     id="namedview12"
     inkscape:window-height="915"
     inkscape:window-width="1551"
     inkscape:pageshadow="2"
     inkscape:pageopacity="0"
     guidetolerance="10"
     gridtolerance="10"
     objecttolerance="10"
     borderopacity="1"
     bordercolor="#666666"
     pagecolor="#ffffff" /><g
     transform="matrix(1.3333333,0,0,-1.3333333,0,768)"
     inkscape:label="GitHub_Logo"
     inkscape:groupmode="layer"
     id="g18"><g
       id="g244"><g
         id="g30"
         transform="translate(177.28111,439.01301)"
         style="fill:#ffffff"><path
           d="m 0,0 h -30.267 c -0.781,0 -1.415,-0.634 -1.415,-1.415 v -14.798 c 0,-0.781 0.634,-1.417 1.415,-1.417 h 11.807 v -18.385 c 0,0 -2.651,-0.904 -9.981,-0.904 -8.647,0 -20.727,3.16 -20.727,29.724 0,26.569 12.579,30.064 24.388,30.064 10.222,0 14.626,-1.799 17.428,-2.667 0.881,-0.269 1.695,0.608 1.695,1.389 l 3.377,14.298 c 0,0.366 -0.124,0.805 -0.54,1.104 -1.138,0.813 -8.081,4.697 -25.621,4.697 -20.205,0 -40.932,-8.596 -40.932,-49.921 0,-41.327 23.73,-47.485 43.727,-47.485 16.557,0 26.601,7.075 26.601,7.075 0.414,0.229 0.459,0.808 0.459,1.073 V -1.415 C 1.414,-0.634 0.781,0 0,0"
           style="fill:#ffffff;fill-opacity:1;fill-rule:nonzero;stroke:none"
           id="path32" /></g><g
         id="g34"
         transform="translate(333.26451,475.75131)"
         style="fill:#ffffff"><path
           d="m 0,0 c 0,0.788 -0.624,1.423 -1.405,1.423 h -17.042 c -0.779,0 -1.411,-0.635 -1.411,-1.423 0,-0.003 0.004,-32.934 0.004,-32.934 H -46.418 V 0 c 0,0.788 -0.627,1.423 -1.407,1.423 h -17.041 c -0.775,0 -1.407,-0.635 -1.407,-1.423 v -89.177 c 0,-0.787 0.632,-1.427 1.407,-1.427 h 17.041 c 0.78,0 1.407,0.64 1.407,1.427 v 38.145 h 26.564 c 0,0 -0.046,-38.142 -0.046,-38.145 0,-0.787 0.631,-1.427 1.412,-1.427 h 17.082 c 0.78,0 1.404,0.64 1.406,1.427 z"
           style="fill:#ffffff;fill-opacity:1;fill-rule:nonzero;stroke:none"
           id="path36" /></g><g
         id="g38"
         transform="translate(209.44031,464.05011)"
         style="fill:#ffffff"><path
           d="m 0,0 c 0,6.136 -4.92,11.095 -10.99,11.095 -6.064,0 -10.987,-4.959 -10.987,-11.095 0,-6.131 4.923,-11.104 10.987,-11.104 C -4.92,-11.104 0,-6.131 0,0"
           style="fill:#ffffff;fill-opacity:1;fill-rule:nonzero;stroke:none"
           id="path40" /></g><g
         id="g42"
         transform="translate(208.22161,405.38601)"
         style="fill:#ffffff"><path
           d="m 0,0 v 41.164 c 0,0.782 -0.63,1.421 -1.41,1.421 h -16.988 c -0.78,0 -1.477,-0.804 -1.477,-1.585 v -58.977 c 0,-1.733 1.08,-2.249 2.478,-2.249 h 15.306 c 1.679,0 2.091,0.826 2.091,2.277 z"
           style="fill:#ffffff;fill-opacity:1;fill-rule:nonzero;stroke:none"
           id="path44" /></g><g
         id="g46"
         transform="translate(398.03211,447.83721)"
         style="fill:#ffffff"><path
           d="m 0,0 h -16.911 c -0.776,0 -1.407,-0.64 -1.407,-1.427 v -43.725 c 0,0 -4.297,-3.144 -10.395,-3.144 -6.098,0 -7.716,2.767 -7.716,8.737 v 38.132 c 0,0.787 -0.63,1.427 -1.406,1.427 h -17.164 c -0.774,0 -1.409,-0.64 -1.409,-1.427 v -41.018 c 0,-17.736 9.884,-22.075 23.481,-22.075 11.156,0 20.15,6.164 20.15,6.164 0,0 0.427,-3.248 0.622,-3.633 0.193,-0.384 0.698,-0.773 1.244,-0.773 l 10.919,0.049 c 0.774,0 1.409,0.64 1.409,1.424 L 1.411,-1.427 C 1.411,-0.64 0.779,0 0,0"
           style="fill:#ffffff;fill-opacity:1;fill-rule:nonzero;stroke:none"
           id="path48" /></g><g
         id="g50"
         transform="translate(437.58391,399.59501)"
         style="fill:#ffffff"><path
           d="m 0,0 c -5.866,0.179 -9.845,2.841 -9.845,2.841 v 28.24 c 0,0 3.925,2.406 8.741,2.836 6.09,0.546 11.958,-1.294 11.958,-15.821 C 10.854,2.776 8.206,-0.247 0,0 m 6.67,50.245 c -9.605,0 -16.138,-4.285 -16.138,-4.285 v 30.196 c 0,0.788 -0.63,1.423 -1.406,1.423 h -17.091 c -0.777,0 -1.408,-0.635 -1.408,-1.423 v -89.177 c 0,-0.787 0.631,-1.426 1.41,-1.426 h 11.858 c 0.534,0 0.938,0.275 1.237,0.757 0.295,0.479 0.72,4.112 0.72,4.112 0,0 6.988,-6.623 20.217,-6.623 15.532,0 24.439,7.878 24.439,35.366 0,27.488 -14.226,31.08 -23.838,31.08"
           style="fill:#ffffff;fill-opacity:1;fill-rule:nonzero;stroke:none"
           id="path52" /></g><g
         id="g54"
         transform="translate(257.20161,447.97881)"
         style="fill:#ffffff"><path
           d="m 0,0 h -12.784 c 0,0 -0.019,16.885 -0.019,16.889 0,0.639 -0.329,0.959 -1.069,0.959 h -17.42 c -0.677,0 -1.041,-0.298 -1.041,-0.95 V -0.554 c 0,0 -8.73,-2.107 -9.32,-2.277 -0.588,-0.171 -1.021,-0.713 -1.021,-1.359 v -10.967 c 0,-0.789 0.63,-1.426 1.409,-1.426 h 8.932 v -26.384 c 0,-19.596 13.746,-21.521 23.021,-21.521 4.239,0 9.309,1.361 10.146,1.67 0.506,0.186 0.801,0.711 0.801,1.279 l 0.014,12.064 c 0,0.787 -0.665,1.424 -1.413,1.424 -0.745,0 -2.651,-0.303 -4.613,-0.303 -6.279,0 -8.407,2.919 -8.407,6.699 0,3.776 -10e-4,25.072 -10e-4,25.072 H 0 c 0.779,0 1.411,0.637 1.411,1.426 V -1.421 C 1.411,-0.634 0.779,0 0,0"
           style="fill:#ffffff;fill-opacity:1;fill-rule:nonzero;stroke:none"
           id="path56" /></g></g></g></svg>
